#!OML:ASF I:\Actors\actors\Patient Classification 1\Patient 1\Session 1\Subject1.ASF
:FULLY-SPECIFIED
:DEGREES
1039
root 0.219929 17.6315 9.68897 25.4074 -27.8061 -9.44512
lowerback 7.94424 -6.0259 8.23669
upperback -5.27603 -6.57152 6.83485
thorax -10.2997 -3.49681 3.9474
lowerneck -19.5269 1.31684 2.62413
upperneck 13.3751 1.41539 -1.98863
head 7.33416 0.62119 -0.912867
rclavicle 5.11871e-014 -2.46493e-014
rhumerus 29.6385 37.3301 -83.0387
rradius 30.9776
rwrist -18.2666
rhand 8.94982 -71.1335
rfingers 7.12502
rthumb 34.1296 -262.112
lclavicle 5.11871e-014 -2.46493e-014
lhumerus 34.4811 27.0641 126.029
lradius 10.2034
lwrist -13.1813
lhand -21.27 15.0941
lfingers 7.12502
lthumb 5.11365 45.0124
rfemur -26.4877 30.0026 15.7234
rtibia 5.66962
rfoot -4.68127 -5.86602
rtoes -5.21702
lfemur 182.112 245.719 -193.379
ltibia -2.78597
lfoot -289.537 230.953
ltoes 48.0739
1040
root 0.207333 17.6365 9.69525 25.8645 -28.0126 -9.38036
lowerback 8.33954 -6.04522 8.30678
upperback -5.23274 -6.52222 7.06574
thorax -10.4693 -3.46635 4.20144
lowerneck -19.2152 1.60646 2.38971
upperneck 12.6181 1.88099 -2.0587
head 7.04319 0.827266 -0.844029
rclavicle 2.94201e-014 2.50469e-014
rhumerus 30.296 36.8335 -83.7636
rradius 29.9463
rwrist -16.9496
rhand 8.97619 -71.5261
rfingers 7.12502
rthumb 34.1547 -261.725
lclavicle 2.94201e-014 2.50469e-014
lhumerus 36.4575 28.9888 128.204
lradius 10.0227
lwrist -15.6757
lhand -21.2407 15.073
lfingers 7.12502
lthumb 5.14199 44.9906
rfemur -27.1281 30.1105 15.3106
rtibia 5.70355
rfoot -4.54878 -5.94832
rtoes -5.30306
lfemur 358.817 113.546 -372.591
ltibia 2.66812
lfoot -290.833 309.597
ltoes 48.4673
1041
root 0.195481 17.6425 9.70147 26.2557 -28.1501 -9.26409
lowerback 8.75203 -6.05613 8.46567
upperback -5.19189 -6.45277 7.18387
thorax -10.677 -3.43507 4.28565
lowerneck -19.1885 1.7338 2.501
upperneck 12.1256 2.07521 -2.4121
head 6.88763 0.893673 -0.955407
rclavicle -2.29596e-014 -1.78906e-014
rhumerus 30.9188 36.104 -84.5975
rradius 28.7381
rwrist -15.4672
rhand 8.89497 -70.7595
rfingers 7.12502
rthumb 34.0775 -262.474
lclavicle -2.29596e-014 -1.78906e-014
lhumerus 37.4305 28.6582 128.51
lradius 9.88301
lwrist -15.6651
lhand -21.4457 15.2463
lfingers 7.12502
lthumb 4.94403 45.1686
rfemur -27.7175 30.3151 14.8191
rtibia 5.70275
rfoot -4.45402 -6.17862
rtoes -5.57099
lfemur 359.876 109.475 -371.723
ltibia 1.75534
lfoot -297.021 310.586
ltoes 48.6955
1042
root 0.184185 17.6474 9.70805 26.5404 -28.2438 -9.0867
lowerback 9.21605 -6.08781 8.67614
upperback -5.15496 -6.4007 7.20622
thorax -10.938 -3.41803 4.24925
lowerneck -19.163 1.86467 2.59367
upperneck 11.7335 2.24361 -2.55436
head 6.76285 0.96686 -0.997786
rclavicle -5.725e-014 -6.16232e-014
rhumerus 31.1827 34.4712 -86.2449
rradius 27.3209
rwrist -12.1727
rhand 11.2631 -71.0546
rfingers 7.12502
rthumb 36.3233 -262.709
lclavicle -5.725e-014 -6.16232e-014
lhumerus 38.2839 28.2986 128.636
lradius 9.67135
lwrist -15.3761
lhand -21.6508 15.2237
lfingers 7.12502
lthumb 4.74592 45.1506
rfemur -28.1896 30.5496 14.3034
rtibia 5.66377
rfoot -4.31988 -6.48888
rtoes -5.85236
lfemur 361.194 105.364 -370.611
ltibia 0.8165
lfoot -302.887 311.92
ltoes 48.8826
1043
root 0.174366 17.6509 9.71403 26.8524 -28.288 -8.97559
lowerback 9.54914 -6.10549 8.97227
upperback -5.0274 -6.34252 7.2126
thorax -11.0302 -3.40472 4.1183
lowerneck -19.1561 1.97971 2.7888
upperneck 11.187 2.3633 -2.7259
head 6.59197 1.01899 -1.0718
rclavicle -5.4467e-014 -1.98785e-015
rhumerus 31.6466 33.1034 -87.5711
rradius 26.2979
rwrist -10.4304
rhand 11.6395 -70.4786
rfingers 7.12502
rthumb 36.6796 -263.375
lclavicle -5.4467e-014 -1.98785e-015
lhumerus 39.0969 27.8329 128.678
lradius 9.50156
lwrist -14.9301
lhand -21.8947 15.2458
lfingers 7.12502
lthumb 4.51045 45.1778
rfemur -28.6539 30.7149 13.8871
rtibia 5.63249
rfoot -4.14593 -6.76849
rtoes -5.92077
lfemur 363.406 101.27 -368.503
ltibia -0.113126
lfoot -308.386 313.55
ltoes 49.0823
1044
root 0.165171 17.6548 9.71912 27.2418 -28.2859 -8.9677
lowerback 9.62195 -6.05344 9.38227
upperback -4.74087 -6.22609 7.20333
thorax -10.8003 -3.3711 3.84068
lowerneck -19.4037 2.01404 3.02597
upperneck 10.6482 2.36335 -2.9569
head 6.46367 1.00736 -1.18387
rclavicle 5.94366e-014 -1.00187e-013
rhumerus 32.5115 31.9314 -88.4012
rradius 25.4764
rwrist -9.68871
rhand 8.87189 -68.1431
rfingers 7.12502
rthumb 34.0556 -265.086
lclavicle 5.94366e-014 -1.00187e-013
lhumerus 39.9522 27.0365 128.775
lradius 9.35678
lwrist -14.7747
lhand -22.244 15.399
lfingers 7.12502
lthumb 4.17314 45.3379
rfemur -29.1847 30.9339 13.5225
rtibia 5.62423
rfoot -3.99564 -7.09118
rtoes -5.7174
lfemur 368.524 97.2451 -363.348
ltibia -1.02123
lfoot -313.569 315.361
ltoes 49.2398
1045
root 0.154562 17.6587 9.72362 27.6252 -28.3181 -8.96547
lowerback 9.75869 -5.99661 9.67557
upperback -4.53693 -6.09835 7.27714
thorax -10.677 -3.32167 3.73286
lowerneck -19.5314 2.04043 3.04546
upperneck 10.2257 2.40548 -3.13162
head 6.35172 1.01233 -1.23844
rclavicle -4.35338e-014 9.14409e-015
rhumerus 33.1667 30.706 -89.3547
rradius 24.5712
rwrist -8.21247
rhand 7.88817 -66.8238
rfingers 7.12502
rthumb 33.1207 -266.202
lclavicle -4.35338e-014 9.14409e-015
lhumerus 40.7455 26.399 128.976
lradius 9.25802
lwrist -14.4478
lhand -22.3416 15.461
lfingers 7.12502
lthumb 4.0789 45.4017
rfemur -29.7393 31.2398 13.1238
rtibia 5.66453
rfoot -3.90977 -7.44988
rtoes -5.57605
lfemur 384.575 93.4439 -347.218
ltibia -1.88876
lfoot -318.446 317.279
ltoes 49.3977
1046
root 0.145482 17.6627 9.72798 28.008 -28.3619 -8.9667
lowerback 10.0199 -5.96064 9.91106
upperback -4.44312 -5.97433 7.39391
thorax -10.7404 -3.27038 3.73411
lowerneck -19.3881 2.04198 3.14964
upperneck 9.60676 2.41468 -3.45461
head 6.13548 0.995382 -1.3593
rclavicle -6.14245e-014 1.07344e-014
rhumerus 33.5216 29.2427 -90.6755
rradius 23.5181
rwrist -6.02665
rhand 8.40934 -65.7049
rfingers 7.12502
rthumb 33.6161 -267.427
lclavicle -6.14245e-014 1.07344e-014
lhumerus 41.3803 25.9826 129.13
lradius 9.28624
lwrist -13.9316
lhand -22.0491 15.406
lfingers 7.12502
lthumb 4.36134 45.3411
rfemur -30.2855 31.483 12.7531
rtibia 5.72761
rfoot -3.82204 -7.73763
rtoes -5.56546
lfemur 296.226 88.0261 -435.465
ltibia -2.74985
lfoot -323.048 319.336
ltoes 49.5007
1047
root 0.140041 17.6674 9.73219 28.3505 -28.3663 -8.93379
lowerback 10.2553 -5.96241 10.1378
upperback -4.31946 -5.90847 7.50241
thorax -10.7552 -3.24595 3.73577
lowerneck -19.2209 2.10117 3.33614
upperneck 8.90035 2.49112 -3.89684
head 5.89385 1.00548 -1.52405
rclavicle 9.70069e-014 -1.51871e-013
rhumerus 33.9766 27.9741 -91.8727
rradius 22.6756
rwrist -3.96412
rhand 9.02692 -65.193
rfingers 7.12502
rthumb 34.2028 -268.068
lclavicle 9.70069e-014 -1.51871e-013
lhumerus 42.0393 25.5956 129.24
lradius 9.37332
lwrist -13.6533
lhand -21.5761 15.4093
lfingers 7.12502
lthumb 4.81809 45.3345
rfemur -30.786 31.6851 12.3599
rtibia 5.74527
rfoot -3.72826 -8.07534
rtoes -5.03163
lfemur 336.77 84.6548 -394.834
ltibia -3.63984
lfoot -327.278 321.673
ltoes 49.6522
1048
root 0.135998 17.6718 9.73656 28.6199 -28.3791 -8.77718
lowerback 10.4685 -5.97775 10.2567
upperback -4.20719 -5.87963 7.59393
thorax -10.7588 -3.23297 3.78178
lowerneck -19.7533 2.1473 3.80709
upperneck 9.20198 2.52973 -4.65636
head 6.0952 0.969687 -1.83895
rclavicle 1.07145e-013 -5.1684e-015
rhumerus 34.4823 27.0689 -92.737
rradius 22.193
rwrist -2.166
rhand 9.60105 -65.5349
rfingers 7.12502
rthumb 34.7478 -267.851
lclavicle 1.07145e-013 -5.1684e-015
lhumerus 42.7229 25.2105 129.391
lradius 9.42144
lwrist -13.4835
lhand -21.2712 15.4291
lfingers 7.12502
lthumb 5.11254 45.3474
rfemur -31.2661 31.8895 11.8163
rtibia 5.7161
rfoot -3.67713 -8.50146
rtoes -4.47526
lfemur 344.795 80.6912 -386.827
ltibia -4.5465
lfoot -331.182 324.163
ltoes 49.9213
1049
root 0.133428 17.6753 9.74153 28.8818 -28.354 -8.58403
lowerback 10.6992 -5.99282 10.3853
upperback -4.14923 -5.84098 7.67071
thorax -10.8371 -3.21755 3.8139
lowerneck -20.6875 2.14947 5.06605
upperneck 9.84065 2.46147 -6.56438
head 6.49494 0.800502 -2.67383
rclavicle -4.96962e-015 -9.93923e-015
rhumerus 34.8968 26.2376 -93.4767
rradius 21.7892
rwrist -0.681719
rhand 10.0279 -65.5053
rfingers 7.12502
rthumb 35.1528 -267.975
lclavicle -4.96962e-015 -9.93923e-015
lhumerus 43.3395 24.7846 129.574
lradius 9.40432
lwrist -13.3664
lhand -21.2749 15.4586
lfingers 7.12502
lthumb 5.10894 45.377
rfemur -31.7292 32.0058 11.2749
rtibia 5.68633
rfoot -3.60703 -8.86781
rtoes -5.04787
lfemur 347.745 76.6082 -383.88
ltibia -5.40251
lfoot -335.012 326.562
ltoes 49.9901
1050
root 0.132924 17.679 9.74487 29.1583 -28.3035 -8.45193
lowerback 10.9523 -6.03128 10.536
upperback -4.11994 -5.82069 7.7789
thorax -10.9613 -3.21199 3.88024
lowerneck -19.8222 2.259 4.3484
upperneck 8.65602 2.66327 -5.75052
head 5.96348 0.96232 -2.26401
rclavicle 5.98342e-014 4.69132e-014
rhumerus 35.2024 25.4176 -94.2853
rradius 21.3252
rwrist 0.615128
rhand 10.2681 -65.0248
rfingers 7.12502
rthumb 35.3806 -268.509
lclavicle 5.98342e-014 4.69132e-014
lhumerus 43.8899 24.4783 129.706
lradius 9.39383
lwrist -13.2131
lhand -21.3128 15.3909
lfingers 7.12502
lthumb 5.07233 45.3102
rfemur -32.2052 32.1017 10.8084
rtibia 5.70114
rfoot -3.51771 -9.18232
rtoes -5.77911
lfemur 349.218 72.5104 -382.298
ltibia -6.18713
lfoot -338.71 328.993
ltoes 49.9261
1051
root 0.132414 17.6819 9.74623 29.4242 -28.3009 -8.32877
lowerback 11.1555 -6.03267 10.652
upperback -4.06678 -5.76986 7.83796
thorax -11.0284 -3.19094 3.89377
lowerneck -20.4861 2.2909 5.17415
upperneck 9.09973 2.64899 -6.95974
head 6.24406 0.867568 -2.79443
rclavicle -3.16068e-014 -9.46215e-014
rhumerus 35.4531 24.3285 -95.307
rradius 20.7887
rwrist 2.12473
rhand 10.2471 -64.6103
rfingers 7.12502
rthumb 35.3607 -268.919
lclavicle -3.16068e-014 -9.46215e-014
lhumerus 44.3368 24.1554 129.706
lradius 9.41787
lwrist -12.9056
lhand -21.1922 15.2513
lfingers 7.12502
lthumb 5.18881 45.1678
rfemur -32.7317 32.2974 10.2704
rtibia 5.72266
rfoot -3.4448 -9.56387
rtoes -5.5585
lfemur 350.203 68.4488 -381.197
ltibia -6.98114
lfoot -342.147 331.628
ltoes 49.9854
1052
root 0.132071 17.6839 9.74844 29.6355 -28.3172 -8.188
lowerback 11.3557 -5.99793 10.7549
upperback -3.99646 -5.67794 7.84767
thorax -11.076 -3.1507 3.84692
lowerneck -20.5938 2.32363 5.44729
upperneck 8.99469 2.66115 -7.3366
head 6.23901 0.849262 -2.96019
rclavicle 2.74323e-014 6.91771e-014
rhumerus 35.7572 23.1756 -96.2108
rradius 20.2844
rwrist 3.5781
rhand 10.2301 -64.1796
rfingers 7.12502
rthumb 35.3445 -269.345
lclavicle 2.74323e-014 6.91771e-014
lhumerus 44.7631 23.6951 129.69
lradius 9.36456
lwrist -12.5732
lhand -21.1923 15.1035
lfingers 7.12502
lthumb 5.18865 45.02
rfemur -33.1782 32.4667 9.75956
rtibia 5.715
rfoot -3.35885 -9.92357
rtoes -5.37548
lfemur 351.066 64.3881 -380.254
ltibia -7.80034
lfoot -345.398 334.386
ltoes 50.1091
